# xmcd
#
# Track frame offsets:
# 150
# 12932
# 26237
# 37985
# 52037
# 63435
# 75187
# 88742
# 107792
# 120945
# 138640
# 155785
# 168905
# 171222
#
# Disc length: 2287 seconds
#
#
# Revision: 1
# Processed by: cddbd v1.5.1PL2 Copyright (c) Steve Scherf et al.
# Submitted via: FreeRIP 2.945 
#
DISCID=b108ed0e
DTITLE=Ralph Stanley and Joe Isaacs - A Gospel Gathering
DYEAR=1995
DGENRE=Gospel
TTITLE0=Step Off On That Beautiful Shore
TTITLE1=Satan's Chains
TTITLE2=Purple Robe
TTITLE3=Jonah And The Whale
TTITLE4=Another Mile
TTITLE5=We'd Always Ask Mama To Pray
TTITLE6=We Shall Meet
TTITLE7=Cast The First Stone
TTITLE8=Keep Walking
TTITLE9=Have You Someone
TTITLE10=Restore Thy Brother
TTITLE11=Jacob's Visions
TTITLE12=Blank Track
TTITLE13=Blank Track
EXTD=Freeland Recording
EXTT0=
EXTT1=
EXTT2=
EXTT3=
EXTT4=
EXTT5=
EXTT6=
EXTT7=
EXTT8=
EXTT9=
EXTT10=
EXTT11=
EXTT12=
EXTT13=
PLAYORDER=
